<svg height="32" viewBox="0 0 32 32" width="32" id="svg3" xmlns="http://www.w3.org/2000/svg"><path d="m11 3c-5 0-8 4.2287638-8 8 0 3.771236 3.029447 8 8 8h2v10h2V19 6h2v23h2V3z" fill="#efefef" id="path1-3"/><path id="rect3" style="fill:#f0f0f0;fill-opacity:1;stroke-width:2" d="M25 15c-2.209139.0-4 1.790861-4 4v6c0 2.209139 1.790861 4 4 4 2.039808.0 3.722701-1.526845 3.96875-3.5H29v-.498047V25 19c0-2.209139-1.790861-4-4-4zm0 2C26.104569 17 27 17.895431 27 19v6C27 26.104569 26.104569 27 25 27S23 26.104569 23 25V19C23 17.895431 23.895431 17 25 17z"/></svg>