<svg version="1.1" id="Capa_1" x="0px" y="0px" style="enable-background:new 0 0 512 512;" xml:space="preserve" sodipodi:docname="12389786231582000618.svg" inkscape:export-filename="donate2.png" inkscape:export-xdpi="28.125" inkscape:export-ydpi="28.125" inkscape:version="1.4.3 (0d15f75042, 2025-12-25)" xmlns:inkscape="http://www.inkscape.org/namespaces/inkscape" xmlns:sodipodi="http://sodipodi.sourceforge.net/DTD/sodipodi-0.dtd" xmlns="http://www.w3.org/2000/svg" xmlns:svg="http://www.w3.org/2000/svg" viewBox="68.43 84.47 375.18 343.03"><defs id="defs1"/><sodipodi:namedview id="namedview1" pagecolor="#505050" bordercolor="#ffffff" borderopacity="1" inkscape:showpageshadow="0" inkscape:pageopacity="0" inkscape:pagecheckerboard="1" inkscape:deskcolor="#505050" inkscape:zoom="1.6469251" inkscape:cx="96.847147" inkscape:cy="284.16592" inkscape:window-width="1036" inkscape:window-height="1224" inkscape:window-x="1202" inkscape:window-y="92" inkscape:window-maximized="0" inkscape:current-layer="Capa_1"/>
<style type="text/css" id="style1">
	.st0{fill:url(#SVGID_1_);}
	.st1{fill:url(#SVGID_2_);}
	.st2{fill:url(#SVGID_3_);}
	.st3{fill:url(#SVGID_4_);}
	.st4{fill:url(#SVGID_5_);}
	.st5{fill:url(#SVGID_6_);}
	.st6{fill:url(#SVGID_7_);}
	.st7{fill:url(#SVGID_8_);}
	.st8{fill:url(#SVGID_9_);}
	.st9{fill:url(#SVGID_10_);}
	.st10{fill:url(#SVGID_11_);}
	.st11{fill:url(#SVGID_12_);}
	.st12{fill:url(#SVGID_13_);}
	.st13{fill:url(#SVGID_14_);}
	.st14{fill:url(#SVGID_15_);}
	.st15{fill:url(#SVGID_16_);}
	.st16{fill:url(#SVGID_17_);}
	.st17{fill:url(#SVGID_18_);}
	.st18{fill:url(#SVGID_19_);}
	.st19{fill:url(#SVGID_20_);}
	.st20{fill:url(#SVGID_21_);}
	.st21{fill:url(#SVGID_22_);}
	.st22{fill:url(#SVGID_23_);}
	.st23{fill:url(#SVGID_24_);}
	.st24{fill:url(#SVGID_25_);}
	.st25{fill:#9D9AE8;}
	.st26{fill:#FCC69D;}
	.st27{fill:#2D2A2B;}
	.st28{fill:#93CE92;}
	.st29{fill:#253E59;}
	.st30{fill:#DAD0D3;}
	.st31{fill:#FCFCFC;}
	.st32{fill:#F9F9F9;}
	.st33{fill:#ED4D67;}
	.st34{fill:#A30D2A;}
	.st35{fill:url(#SVGID_26_);}
	.st36{fill:url(#SVGID_27_);}
	.st37{fill:url(#SVGID_28_);}
	.st38{fill:url(#SVGID_29_);}
</style>
<path d="M384.4,99c-39.9-21.6-80.1-18.8-117.8,6.3c-8.3,5.6-12.9,5.4-20.9-0.1C198.8,72.8,137.2,80,98.4,121.5  c-37.7,40.3-40.1,102.9-5.5,146.9c4.9,6.2,8.6,12.2,9.8,20.4c2,14.4,11.9,23.3,25.7,25.7c7.7,1.4,10,4,11.3,11.2  c2.5,14.1,11.7,23.6,25.6,26c8.5,1.5,10.5,5.4,12,12.7c2.8,13.5,12.1,22.2,25.2,24.6c8.2,1.5,10.3,4.9,12.1,12.3  c6.5,26.2,36.1,34.7,56.3,16.5c7.3-6.6,14.1-13.8,21-20.8c3.7-3.7,7.1-6.7,13.1-7.2c17.1-1.5,27.6-11.4,30.7-28  c1.2-6.2,3.2-8.4,9.4-9.5c15.4-2.6,25.2-12.3,27.7-27.7c1.2-7.4,4.6-8.8,11-9.8c10.9-1.7,21.2-8.1,23.2-18.4  c3.4-17.1,14.4-29.2,22.5-43.2c9.5-16.5,14.2-34.4,14.1-53.7C442.7,155,423.7,120.3,384.4,99z M135.5,299.9  c-7.5,0-12.9-3.7-16.2-10.2c-3.4-6.6-3.3-13.5,1.7-19c9.1-9.9,18.7-19.4,28.6-28.6c5.5-5.1,12.3-5,18.9-1.7c6.6,3.4,10,8.8,10,16.2  C178.4,268.4,147.2,299.8,135.5,299.9z M185.5,331.8c-8.6,7.8-18,7.8-26-0.7c-7.3-7.9-7.1-16.9,0.3-24.9c8.4-9,17.2-17.7,26.3-26.1  c5.8-5.3,12.8-6.2,20-2.2c6.5,3.5,9.8,8.9,9.5,16.3c0.1,4.9-1.5,9.1-4.9,12.5C202.3,315.1,194.2,323.8,185.5,331.8z M221.5,370  c-7.6,6.9-16.5,6.4-23.7-0.5c-7.6-7.3-9-16.6-1.7-24.8c8.5-9.6,18-18.4,27.3-27.3c5.9-5.6,13-6,20-2.2c6.3,3.4,9.8,8.9,9.7,16.4  c-0.1,4.3-1.2,8.2-4.2,11.3C239.8,352,231,361.4,221.5,370z M247.9,411.7c-7.3,0-12.9-3.1-16.6-9.4c-4.1-7-3.6-14.3,1.7-20.1  c9-9.9,18.7-19.2,28.5-28.3c5.5-5.1,12.3-5,18.8-1.6c6.5,3.3,10.1,8.7,10,16.1C290.2,379.8,259.4,411.3,247.9,411.7z M389.2,294.6  c-9.1,8.8-18.9,6.5-27.5-1.9c-21-20.8-41.8-41.8-62.8-62.6c-4.5-4.5-9.5-12.5-16.5-5.8c-7.1,6.7,0.4,12,5,16.6  c20.1,20.2,40.4,40.3,60.5,60.6c11.9,12,13.4,22.8,3.8,30.8c-11.3,9.4-20.7,4.6-29.8-4.7c-20.3-20.8-41-41.1-61.6-61.6  c-4.4-4.3-9.1-10.7-15.4-4.2c-6.2,6.3,0,11.4,4.2,15.7c20.8,21,41.8,41.8,62.8,62.6c8.9,8.8,12.3,18,3.3,28.6  c-1.5,1.7-4.3,3.3-6.5,3.3c-3.5-0.1-2.6-3.7-2.9-6.1c-1.9-17.2-11.6-27.4-28.3-30.6c-6.1-1.2-8.6-3.2-9.5-9.5  c-2.3-15.6-12.3-24.8-27.5-27.8c-5.8-1.2-8.8-2.5-9.7-9.1c-2.2-15.6-12.1-25.3-27.3-28c-7.1-1.3-8.7-4.3-10.3-10.6  c-7.1-28.4-36.3-36.5-57.9-16.5c-7.2,6.7-14.4,13.5-20.8,20.9c-6,6.9-9.3,4.9-13.8-1.7c-10.4-15-16.8-35.3-16.6-62.1  c1.7-30.7,17.9-59.4,50.4-77.5c32-17.8,64.4-16.3,96.4,1.2c11,6,15.1,11.3,3,20.7c-7.3,5.7-13.5,12.8-19.9,19.6  c-14.2,15.1-14.6,34.9-1.2,48.8c12.9,13.4,34,13.6,49,0c8.4-7.7,16.5-15.8,24.2-24.2c5-5.5,8.5-5.8,13.8-0.3  c29.1,29.6,58.6,58.8,87.9,88.2C396.4,275.7,398.4,285.6,389.2,294.6z M412.3,251.5c-5.1,8.5-8.6,9-15.9,1.6  c-30-30.8-61.1-60.7-91-91.6c-9-9.3-15.2-10.2-23.9-0.1c-9.1,10.6-19.5,20.1-29.6,29.8c-8.7,8.3-18.6,10.2-27.4,1.1  c-8.8-9.1-7-18.8,1.7-27.4c13.6-13.5,26.4-28,41-40.3c31-25.9,66.3-31.5,103.2-14.8c37.5,17,55.7,47.9,57.4,81.3  C427.9,217.7,422.2,235.1,412.3,251.5z" id="path1"/>
<path style="fill:#ff0000;stroke:none;stroke-width:1;stroke-linecap:round;stroke-miterlimit:1;paint-order:fill markers stroke" d="m 307.069,371.11842 c -0.3866,-0.3866 -0.79107,-2.14708 -0.98027,-4.26667 -1.47059,-16.47514 -10.32549,-27.19851 -25.64188,-31.05262 -6.7342,-1.69454 -8.18873,-2.28627 -9.61615,-3.91202 -1.51539,-1.72592 -1.8535,-2.66447 -3.29397,-9.14355 -2.16198,-9.72427 -7.5592,-16.88639 -15.91871,-21.12415 -2.28325,-1.15746 -5.60433,-2.47143 -7.38018,-2.91992 -8.05283,-2.03376 -9.32147,-2.52555 -10.76957,-4.17484 -1.45767,-1.66019 -1.65874,-2.2304 -3.25645,-9.23456 -2.22666,-9.76144 -7.87967,-17.12413 -16.22744,-21.13524 -2.61501,-1.25651 -6.38002,-2.57314 -9.46882,-3.31127 -7.65059,-1.82825 -9.01573,-3.22175 -11.40673,-11.64367 -3.83019,-13.49124 -12.5004,-22.67928 -24.28721,-25.73775 -4.68477,-1.21562 -11.71353,-1.02663 -16.74221,0.45016 -9.2208,2.70791 -13.15113,5.62458 -29.03543,21.54698 -7.47712,7.49505 -13.27792,12.94875 -13.95315,13.11822 -2.83471,0.71146 -5.23167,-1.22975 -9.383696,-7.59952 -9.722815,-14.91611 -15.296323,-35.59699 -15.296323,-56.75803 0,-33.85038 19.650069,-64.42995 52.583779,-81.83124 17.20195,-9.08904 35.5438,-12.827423 53.40917,-10.88569 12.98217,1.41099 28.17187,6.4723 40.68168,13.55542 7.74235,4.38375 10.66074,7.83948 9.66526,11.44483 -0.72685,2.63243 -2.80433,5.02253 -8.72987,10.04355 -7.0652,5.98669 -19.67407,19.33667 -22.85915,24.20271 -4.41377,6.74319 -6.18447,12.42084 -6.19872,19.87577 -0.036,18.85035 16.55766,34.39957 35.49195,33.25801 6.96717,-0.42006 12.9795,-2.4897 19.22778,-6.61884 3.11733,-2.06007 14.98494,-13.31921 23.50381,-22.29872 9.21995,-9.71852 10.56773,-10.54717 14.25302,-8.76316 1.43407,0.69423 15.01131,14.06968 48.64478,47.92182 25.6605,25.82734 47.18733,47.7415 47.83738,48.69814 3.26512,4.80506 3.78298,11.0676 1.31594,15.914 -1.75491,3.44747 -6.43417,8.03007 -9.78249,9.58042 -5.45184,2.52434 -11.14492,1.81756 -16.97536,-2.10742 -1.38422,-0.93184 -18.7652,-17.91637 -38.62439,-37.7434 -32.43094,-32.3784 -36.31118,-36.10351 -38.10659,-36.58312 -2.49207,-0.66571 -4.12965,-0.32154 -6.44278,1.35408 -3.63333,2.63197 -4.87128,6.68542 -3.10337,10.16138 0.45153,0.88775 16.46972,17.29556 35.59599,36.4618 19.12627,19.16622 35.6319,35.9792 36.67919,37.36216 6.23709,8.23622 6.77526,16.2737 1.5087,22.53264 -3.15997,3.75542 -10.29962,7.42687 -14.44259,7.42687 -2.68819,0 -6.93754,-1.47077 -10.02081,-3.46837 -1.75824,-1.13913 -15.43696,-14.44383 -38.69789,-37.63979 -25.03446,-24.96451 -36.50003,-36.0951 -37.6933,-36.59205 -2.56716,-1.06913 -4.1595,-0.88093 -6.64091,0.7849 -4.0457,2.71596 -5.30979,6.70714 -3.36591,10.62738 0.65402,1.31898 12.35438,13.33661 36.47132,37.46028 21.07593,21.08181 36.24589,36.61543 37.32288,38.21758 4.69534,6.98494 4.09867,14.90879 -1.61108,21.39541 -2.78315,3.16182 -6.72207,4.66826 -8.23923,3.1511 z" id="path4"/><path style="fill:#008000;stroke:none;stroke-width:1;stroke-linecap:round;stroke-miterlimit:1;paint-order:fill markers stroke" d="m 401.01572,256.62762 c -0.98675,-0.66959 -24.00383,-23.46605 -51.14905,-50.65881 -54.65565,-54.75135 -51.85585,-52.22122 -57.3475,-51.82399 -4.18486,0.3027 -6.07289,1.733 -15.29009,11.5832 -9.9398,10.62241 -26.60113,26.57729 -30.31814,29.03262 -3.6275,2.3962 -6.85177,3.28558 -10.93919,3.01745 -4.27095,-0.28018 -7.46354,-1.90136 -11.15832,-5.66612 -6.67455,-6.80099 -7.54804,-14.77377 -2.43379,-22.21462 2.03947,-2.96728 30.23477,-31.83052 37.78897,-38.68418 11.27123,-10.226 18.75006,-15.61434 28.76343,-20.72345 26.11478,-13.324513 54.37259,-13.166229 83.19821,0.46603 25.11283,11.8764 42.90371,31.2594 50.78424,55.32893 3.49341,10.66998 4.92325,20.52677 4.51651,31.13514 -0.74763,19.49883 -4.64312,34.5099 -12.83528,49.46009 -5.82143,10.62375 -8.96437,12.87975 -13.58,9.74771 z" id="path5"/><path style="fill:#008000;stroke:none;stroke-width:1;stroke-linecap:round;stroke-miterlimit:1;paint-order:fill markers stroke" d="m 131.45946,299.20176 c -3.66944,-0.8496 -6.01227,-2.22448 -8.57799,-5.03392 -5.43862,-5.95528 -7.02026,-13.26625 -4.19846,-19.40704 2.10351,-4.57768 30.02122,-32.63688 34.78458,-34.96088 6.55236,-3.19684 16.45374,-0.3149 21.3993,6.22857 2.15861,2.85605 3.17996,6.04289 3.17996,9.92218 0,2.57343 -0.26725,3.6312 -1.64237,6.50059 -5.5199,11.5181 -22.93822,29.18454 -34.56664,35.05902 -4.20298,2.12328 -6.73271,2.53557 -10.37838,1.69148 z" id="path6"/><path style="fill:#008000;stroke:none;stroke-width:1;stroke-linecap:round;stroke-miterlimit:1;paint-order:fill markers stroke" d="m 167.33746,336.3157 c -6.81939,-2.75234 -12.24258,-9.69734 -12.71366,-16.28123 -0.52018,-7.27026 1.04444,-9.54281 18.56734,-26.96834 12.8067,-12.73554 14.27379,-14.04799 17.46788,-15.6266 3.3518,-1.65654 3.63534,-1.7155 7.31487,-1.52106 3.16497,0.16725 4.3726,0.47072 6.97299,1.7523 4.146,2.04331 7.31477,5.07349 8.93249,8.54184 1.1547,2.47561 1.2913,3.27849 1.29494,7.61081 0.006,7.54084 -0.55969,8.46543 -12.9676,21.18234 -18.44936,18.90879 -22.17191,21.7363 -29.00311,22.02972 -2.83598,0.1218 -4.19375,-0.0448 -5.86614,-0.71978 z" id="path7"/><path style="fill:#008000;stroke:none;stroke-width:1;stroke-linecap:round;stroke-miterlimit:1;paint-order:fill markers stroke" d="m 204.75737,373.69544 c -4.90187,-1.97157 -9.02357,-5.91972 -11.61097,-11.12206 -1.27922,-2.57206 -1.47834,-3.4489 -1.46645,-6.45766 0.0117,-2.94796 0.23667,-3.94095 1.46838,-6.47968 1.75518,-3.6177 8.71265,-11.15803 22.73959,-24.64459 11.1418,-10.71256 13.08587,-11.96112 18.57565,-11.93002 4.08154,0.0231 7.52858,1.25044 11.29098,4.02016 5.03204,3.70438 7.27507,8.6306 6.92777,15.21501 -0.34149,6.47422 -1.07342,7.5662 -13.41895,20.02016 -13.84379,13.96537 -19.73097,19.30332 -22.93184,20.79246 -3.35894,1.56269 -8.4991,1.82303 -11.57416,0.58622 z" id="path8"/><path style="fill:#18a303;stroke:none;stroke-width:1;stroke-linecap:round;stroke-miterlimit:1;paint-order:fill markers stroke;fill-opacity:1" d="m 242.96749,410.96781 c -5.11842,-1.27591 -9.54446,-5.08808 -12.24019,-10.5425 -1.53172,-3.09922 -1.6994,-3.80459 -1.70494,-7.17205 -0.01,-5.85605 1.24795,-7.96247 10.45985,-17.51996 11.40272,-11.8305 23.38691,-22.98787 26.02162,-24.22633 4.85958,-2.28428 10.90543,-1.48555 16.59617,2.19255 5.14339,3.32434 7.72302,7.79307 7.77251,13.46444 0.0259,2.96375 -0.17891,3.90082 -1.42905,6.5396 -3.04083,6.41849 -8.37686,13.29916 -16.7756,21.63169 -6.57728,6.52544 -13.57471,12.01978 -18.22136,14.30732 -3.38695,1.66739 -7.18141,2.14726 -10.47901,1.32524 z" id="path9"/><path style="fill:#18a303;fill-opacity:1;stroke:none;stroke-width:1;stroke-linecap:round;stroke-miterlimit:1;paint-order:fill markers stroke" d="m 394.42347,249.71042 c -4.37012,-4.25647 -27.20884,-26.89508 -50.75272,-50.30802 -26.97843,-26.82839 -43.87916,-43.1878 -45.70649,-44.24253 -2.4946,-1.43989 -3.30001,-1.61526 -5.76832,-1.256 -1.57788,0.22966 -3.55197,0.84593 -4.38686,1.36948 -0.83489,0.52356 -8.3489,7.81444 -16.69779,16.20196 -16.06349,16.13783 -23.21327,22.62711 -26.89433,24.40986 -1.23799,0.59957 -4.09749,1.20256 -6.35445,1.34 -3.51974,0.21433 -4.57489,0.0192 -7.41651,-1.371 -9.0464,-4.42598 -13.19248,-14.54262 -9.3459,-22.80441 2.64911,-5.68981 36.98951,-40.50296 50.03494,-50.72374 20.23503,-15.85367 43.82253,-23.331163 66.1602,-20.97351 34.22978,3.61281 66.12413,24.74337 80.34378,53.22914 9.57054,19.17236 11.84388,40.88179 6.79804,64.91831 -2.28293,10.87503 -7.77526,24.24913 -13.29844,32.38238 -5.36577,7.90144 -6.52787,7.75044 -16.71515,-2.17192 z" id="path10"/><path style="fill:#18a303;fill-opacity:1;stroke:none;stroke-width:1;stroke-linecap:round;stroke-miterlimit:1;paint-order:fill markers stroke" d="m 129.92053,298.41311 c -3.57416,-1.10179 -7.06131,-4.15298 -9.62669,-8.42318 -2.71037,-4.51153 -3.28489,-10.28025 -1.43145,-14.37302 1.35903,-3.00102 11.93831,-14.81135 21.24215,-23.71399 12.5074,-11.96805 15.55439,-13.81939 21.3654,-12.98152 3.60317,0.51952 8.35452,2.686 11.0164,5.02316 5.11942,4.49491 6.64045,12.65084 3.48111,18.66604 -6.29577,11.98677 -22.7668,28.5567 -34.1066,34.31139 -5.19641,2.63706 -7.35038,2.90605 -11.94032,1.49112 z" id="path11"/><path style="fill:#18a303;fill-opacity:1;stroke:none;stroke-width:1;stroke-linecap:round;stroke-miterlimit:1;paint-order:fill markers stroke" d="m 168.00885,336.1414 c -7.88789,-2.90412 -13.67791,-11.29111 -13.04701,-18.89893 0.41552,-5.01063 3.28125,-8.69822 18.62735,-23.96946 16.29244,-16.21296 17.88796,-17.30257 24.69648,-16.86563 3.68969,0.23679 5.04421,0.64023 7.89793,2.3524 3.76052,2.25622 7.07984,6.09445 8.19644,9.47778 0.41744,1.26485 0.59896,4.12587 0.43809,6.90488 -0.34457,5.95216 -1.0495,7.07649 -11.33922,18.08527 -9.33731,9.98982 -20.06092,19.75557 -23.76061,21.63825 -3.59925,1.83157 -8.6922,2.38632 -11.70945,1.27544 z" id="path12"/><path style="fill:#18a303;fill-opacity:1;stroke:none;stroke-width:1;stroke-linecap:round;stroke-miterlimit:1;paint-order:fill markers stroke" d="m 203.40937,372.68569 c -3.65158,-1.79577 -8.02644,-6.36923 -10.05102,-10.50732 -1.42234,-2.90718 -1.60425,-3.87969 -1.31741,-7.04303 0.49871,-5.49984 2.96177,-8.7033 18.88101,-24.55657 16.1903,-16.1232 18.41636,-17.67287 24.58331,-17.11367 6.15511,0.55812 12.08978,4.3931 14.96173,9.66826 1.52911,2.80865 1.75987,3.87487 1.76023,8.13298 3.5e-4,4.3053 -0.21235,5.26412 -1.75099,7.8935 -1.93077,3.29947 -17.37878,19.35213 -26.42233,27.45654 -3.17258,2.84311 -6.86127,5.66835 -8.19709,6.2783 -3.47137,1.58508 -8.98765,1.49245 -12.44744,-0.20899 z" id="path13"/><path style="fill:#a31803;fill-opacity:1;stroke:none;stroke-width:1;stroke-linecap:round;stroke-miterlimit:1;paint-order:fill markers stroke" d="m 241.25215,410.11157 c -3.62359,-1.33656 -7.56898,-5.06083 -9.80439,-9.25488 -1.59351,-2.98973 -1.92681,-4.29127 -1.91579,-7.48117 0.0185,-5.35451 1.22949,-7.61371 8.1869,-15.27313 7.64508,-8.41648 25.32959,-24.95192 28.16902,-26.3387 3.06682,-1.49785 8.68076,-1.36581 12.40618,0.29179 6.76708,3.01097 10.60866,7.83685 11.17048,14.03263 0.28556,3.14924 0.0892,4.10095 -1.5844,7.67725 -2.73066,5.83527 -6.65416,11.06927 -13.99633,18.67127 -14.91199,15.43969 -24.54533,20.65759 -32.63167,17.67494 z" id="path14"/><path style="fill:#18a303;fill-opacity:1;stroke:none;stroke-width:1;stroke-linecap:round;stroke-miterlimit:1;paint-order:fill markers stroke" d="m 239.4499,408.69933 c -3.45452,-2.0258 -6.30049,-5.14415 -8.12553,-8.90321 -1.62494,-3.34693 -1.62345,-9.32481 0.003,-12.68497 1.83025,-3.78079 10.42105,-13.16914 21.36091,-23.34401 13.15054,-12.23097 13.57924,-12.51288 18.9805,-12.48152 6.8274,0.0396 12.88516,3.69209 15.78932,9.51998 4.08022,8.18793 0.32738,16.50216 -14.33123,31.75022 -11.32394,11.7793 -19.58803,17.2852 -26.60703,17.7268 -3.53517,0.22241 -4.27246,0.0573 -7.07011,-1.58329 z" id="path15"/></svg>