<svg viewBox="0 0 24 24" id="svg1" xmlns="http://www.w3.org/2000/svg"><path d="M8 2C4 2 1.9999975 5.1715729 2 8c21e-7 2.357027 2 5 5.0000178 5v9h2V4.9999997H11.000018V22h2V1.9999997z" fill="#efefef" id="path1" style="fill:#2e3436;fill-opacity:1"/><g id="rect5-3" style="opacity:1"><path style="baseline-shift:baseline;display:inline;overflow:visible;vector-effect:none;fill:#f0f0f0;stroke-linecap:round;stroke-linejoin:round;enable-background:accumulate;stop-color:#000000;stop-opacity:1" d="m17.521967 18.512409h.97518v2.407776h-.97518z" id="path2"/><path id="path3" style="baseline-shift:baseline;display:inline;overflow:visible;vector-effect:none;fill:#2e3436;stroke-linecap:round;stroke-linejoin:round;enable-background:accumulate;stop-color:#000000;stop-opacity:1;fill-opacity:1" d="m18 13.498822c-.398082 578e-6-.779609.159371-1.060547.441406l-2.490234 2.005084c-.281318.281259-.439393.662745-.439453 1.060547V20.5c0 .828427.671573 1.5 1.5 1.5h4.992187C21.330389 21.99677 22.003242 21.322571 22 20.494141V17c-51e-6-.394934-.155854-.773913-.433594-1.054688l.0039-.002-2.509765-2.007037C18.778969 13.65572 18.397522 13.498364 18 13.498822zM18 15c.128377.0.257731.04823.355469.146484l2.001178 1.498047-.002.002c.09382.09371.146464.220915.146484.353516l-.0031 3.009571C20.499128 20.28572 20.276143 20.514353 20 20.51543h-1s.0098-1.174628.0098-2.003711C19.009323 18.229274 18.780492 18.000409 18.498047 18h-.976563c-.282445 409e-6-.511309.229274-.511718.511719C17.0072 19.340872 17 20.529682 17 20.529682h-1c-.276142.0-.511868-.253163-.509766-.529297L15.513074 17c2e-5-.1326.06248-.253903.15625-.347656l1.97716-1.50586C17.744222 15.048225 17.871623 15 18 15z"/></g></svg>