<svg viewBox="0 0 16 16" id="svg1" xmlns="http://www.w3.org/2000/svg"><path d="M4 1C2 1 0 3 0 5.5342583.0 8 2 10 4 10v5H6V3H7V15H9V1z" fill="#efefef" id="path1" style="fill:#2e3436;fill-opacity:1"/><g id="rect5" style="opacity:1"><path style="baseline-shift:baseline;display:inline;overflow:visible;vector-effect:none;fill:#f0f0f0;stroke-linecap:round;stroke-linejoin:round;enable-background:accumulate;stop-color:#000000;stop-opacity:1" d="m12.51241 11.51241h.97518v2.407776h-.97518z" id="path2"/><path id="path3" style="baseline-shift:baseline;display:inline;overflow:visible;vector-effect:none;fill:#2e3436;stroke-linecap:round;stroke-linejoin:round;enable-background:accumulate;stop-color:#000000;stop-opacity:1;fill-opacity:1" d="M13 8A1.5000001 1.5 44.919745 0011.939453 8.4414062L10.443359 9.9433594A1.5 1.5000001.0 0010.003906 11 1.5 1.5000001.0 0010.003906 11.003906V13.5a1.5 1.5000001.0 001.5 1.5H14.5C15.326839 14.996507 15.99895 14.320399 15.998047 13.494141V13.492188 11a1.5 1.5000001.0 00-.439453-1.0605469L14.060547 8.4375A1.5000001 1.5 44.919745 0013 8zm0 1A.50000012.5 44.919745 0113.355469 9.1464844l1.496093 1.4999996A.5.50000012.0 0114.998047 11v2.496094C14.999247 13.772233 14.776139 13.996885 14.5 13.998047V14H14V11.511719C13.999591 11.229274 13.770726 11.000409 13.488281 11H12.511719C12.229274 11.000409 12.000409 11.229274 12 11.511719V14H11.503906a.5.50000012.0 01-.5-.5V11.003906 11A.5.50000012.0 0111.150391 10.650391l1.496093-1.5039066A.50000012.5 44.919745 0113 9z"/></g></svg>